<svg width="600" height="519" viewBox="0 0 600 519" fill="none" xmlns="http://www.w3.org/2000/svg">
  <path fill="#0A7AFF" d="M300 184.257C300 184.257 344.4 125.157 422.4 62.5572C462 29.4572 501.8 10.8572 538.8 18.4572C575.8 26.0572 600 60.6572 600 106.257C600 132.157 584.8 163.657 551 198.657C512.8 238.157 450 280.257 450 280.257C450 280.257 507.4 270.757 540.8 285.657C571.2 299.157 600 336.657 600 372.657C600 409.657 576.8 444.857 540.6 451.257C473.6 463.257 414 408.857 300 276.257C186 408.857 126.4 463.257 59.4 451.257C23.2 444.857 0 409.657 0 372.657C0 336.657 28.8 299.157 59.2 285.657C92.6 270.757 150 280.257 150 280.257C150 280.257 87.2 238.157 49 198.657C15.2 163.657 0 132.157 0 106.257C0 60.6572 24.2 26.0572 61.2 18.4572C98.2 10.8572 138 29.4572 177.6 62.5572C255.6 125.157 300 184.257 300 184.257Z"/>
</svg>
