<svg width="24" height="24" viewBox="0 0 24 24" xmlns="http://www.w3.org/2000/svg">
  <path
    fill="#FFFFFF"
    d="M20.317 4.369s-1.885-1.469-4.11-1.637l-.196.392c2.027.497 2.966 1.211 2.966 1.211-2.798-1.54-6.067-1.54-8.819 0 0 0 .94-.714 2.967-1.211l-.197-.392c-2.226.168-4.11 1.637-4.11 1.637s-2.102 3.055-2.49 9.427c0 0 1.178 2.031 4.284 2.135 0 0 .52-.635.94-1.178-1.78-.51-2.45-1.57-2.45-1.57s.154.111.434.265c.016.01.034.018.051.027.04.022.08.043.12.063.35.178.7.328 1.02.446.576.213 1.264.428 2.074.574 1.06.189 2.298.258 3.65.014.663-.116 1.344-.292 2.065-.574.5-.195 1.06-.464 1.655-.845 0 0-.7 1.094-2.53 1.592.42.543.938 1.178.938 1.178 3.106-.104 4.284-2.135 4.284-2.135-.388-6.372-2.49-9.427-2.49-9.427zM9.68 12.982c-.78 0-1.42-.713-1.42-1.591 0-.879.62-1.592 1.42-1.592.79 0 1.43.713 1.42 1.592-.01.878-.63 1.591-1.42 1.591zm4.64 0c-.78 0-1.42-.713-1.42-1.591 0-.879.62-1.592 1.42-1.592.79 0 1.43.713 1.42 1.592-.01.878-.63 1.591-1.42 1.591z"
  />
</svg>
